<svg xmlns="http://www.w3.org/2000/svg" version="1.1" xmlns:xlink="http://www.w3.org/1999/xlink" xmlns:svgjs="http://svgjs.dev/svgjs" width="1440" height="560" preserveAspectRatio="none" viewBox="0 0 1440 560"><g mask="url(&quot;#SvgjsMask1811&quot;)" fill="none"><rect width="1440" height="560" x="0" y="0" fill="url(&quot;#SvgjsLinearGradient1812&quot;)"></rect><path d="M 0,131 C 57.6,108.4 172.8,16.6 288,18 C 403.2,19.4 460.8,136.8 576,138 C 691.2,139.2 748.8,32.2 864,24 C 979.2,15.8 1036.8,87.6 1152,97 C 1267.2,106.4 1382.4,76.2 1440,71L1440 560L0 560z" fill="#1d71e6"></path><path d="M 0,301 C 96,293.8 288,251 480,265 C 672,279 768,384.2 960,371 C 1152,357.8 1344,233.4 1440,199L1440 560L0 560z" fill="#184a7e"></path><path d="M 0,538 C 144,519 432,445 720,443 C 1008,441 1296,511 1440,528L1440 560L0 560z" fill="#2264ab"></path></g><defs><mask id="SvgjsMask1811"><rect width="1440" height="560" fill="#ffffff"></rect></mask><linearGradient x1="50%" y1="100%" x2="50%" y2="0%" gradientUnits="userSpaceOnUse" id="SvgjsLinearGradient1812"><stop stop-color="#0e2a47" offset="0"></stop><stop stop-color="rgba(10, 95, 205, 1)" offset="1"></stop></linearGradient></defs></svg>